<svg width="25" height="24" viewBox="0 0 25 24" fill="none" xmlns="http://www.w3.org/2000/svg">
<g clip-path="url(#clip0_747_119936)">
<path fill-rule="evenodd" clip-rule="evenodd" d="M9.09088 5.52464V5.07093C9.09088 3.55448 4.37666 3.55448 4.37666 5.07093V5.44396C6.06702 4.49231 7.4008 4.63068 9.09088 5.52464ZM20.3733 5.44396V5.07093C20.3733 3.55448 15.6591 3.55448 15.6591 5.07093V5.52464C17.3492 4.63073 18.683 4.49231 20.3733 5.44396ZM9.10944 6.17592C10.9955 7.242 13.7545 7.242 15.6405 6.17592C17.3324 5.21972 18.5754 4.95754 20.4315 6.13429C22.5487 7.47661 24.201 12.7622 23.8619 16.3319C23.4613 20.5514 19.7767 21.1539 17.182 18.3497C15.8426 16.9023 14.3741 16.1198 12.375 16.0992C10.3759 16.1199 8.90737 16.9023 7.56801 18.3497C4.97324 21.1539 1.28872 20.5514 0.888037 16.3319C0.54899 12.7622 2.20124 7.47656 4.31844 6.13429C6.17455 4.95754 7.41763 5.21972 9.10944 6.17592ZM7.56463 10.9981V9.29268H5.85918V10.9981H4.15372V12.7035H5.85918V14.409H7.56463V12.7035H9.27004V10.9981H7.56463ZM17.7707 9.02531C17.2906 9.02531 16.9014 9.41451 16.9014 9.89456C16.9014 10.3746 17.2906 10.7638 17.7707 10.7638C18.2507 10.7638 18.6399 10.3746 18.6399 9.89456C18.6399 9.41451 18.2507 9.02531 17.7707 9.02531ZM16.6837 11.8508C16.6837 11.3707 16.2945 10.9815 15.8144 10.9815C15.3344 10.9815 14.9452 11.3707 14.9452 11.8508C14.9452 12.3308 15.3344 12.72 15.8144 12.72C16.2945 12.72 16.6837 12.3308 16.6837 11.8508ZM17.7707 12.9378C17.2906 12.9378 16.9014 13.327 16.9014 13.807C16.9014 14.2871 17.2906 14.6763 17.7707 14.6763C18.2507 14.6763 18.6399 14.2871 18.6399 13.807C18.6399 13.327 18.2507 12.9378 17.7707 12.9378ZM20.5962 11.8508C20.5962 11.3707 20.207 10.9815 19.7269 10.9815C19.2469 10.9815 18.8577 11.3707 18.8577 11.8508C18.8577 12.3308 19.2469 12.72 19.7269 12.72C20.207 12.72 20.5962 12.3308 20.5962 11.8508Z" fill="url(#paint0_linear_747_119936)"/>
</g>
<defs>
<linearGradient id="paint0_linear_747_119936" x1="13.0138" y1="3.93359" x2="13.0138" y2="20.0665" gradientUnits="userSpaceOnUse">
<stop stop-color="#FFBC6F"/>
<stop offset="1" stop-color="#FF8900"/>
</linearGradient>
<clipPath id="clip0_747_119936">
<rect width="24" height="24" fill="white" transform="translate(0.375)"/>
</clipPath>
</defs>
</svg>
